<svg xmlns="http://www.w3.org/2000/svg" viewBox="0 0 32 32" width="32" height="32">
  <rect width="32" height="32" fill="#4b1c4c" rx="4"/>

  <!-- Wave 1 -->
  <path d="M 2 10 C 4 10, 5 10, 6 7 C 7 2, 9 2, 11 7 C 13 18, 15 18, 16 18 C 17 18, 19 18, 21 7 C 23 2, 25 2, 26 7 C 27 10, 28 10, 30 10" stroke="white" stroke-width="0.75" fill="none"/>

  <!-- Wave 2 -->
  <path d="M 2 16 C 4 16, 5 16, 6 13 C 7 8, 9 8, 11 13 C 13 24, 15 24, 16 24 C 17 24, 19 24, 21 13 C 23 8, 25 8, 26 13 C 27 16, 28 16, 30 16" stroke="white" stroke-width="0.75" fill="none"/>

  <!-- Wave 3 -->
  <path d="M 2 22 C 4 22, 5 22, 6 19 C 7 14, 9 14, 11 19 C 13 30, 15 30, 16 30 C 17 30, 19 30, 21 19 C 23 14, 25 14, 26 19 C 27 22, 28 22, 30 22" stroke="white" stroke-width="0.75" fill="none"/>
</svg>
