<svg xmlns="http://www.w3.org/2000/svg" viewBox="0 0 32 32" width="32" height="32">
  <rect width="32" height="32" fill="#4b1c4c" rx="4"/>

  <!-- Wave 1 -->
  <path d="M 2 10 C 4 10, 5 10, 6 8 C 7 5, 9 5, 11 8 C 13 15, 15 15, 16 15 C 17 15, 19 15, 21 8 C 23 5, 25 5, 26 8 C 27 10, 28 10, 30 10" stroke="white" stroke-width="0.75" fill="none"/>

  <!-- Wave 2 -->
  <path d="M 2 16 C 4 16, 5 16, 6 14 C 7 11, 9 11, 11 14 C 13 21, 15 21, 16 21 C 17 21, 19 21, 21 14 C 23 11, 25 11, 26 14 C 27 16, 28 16, 30 16" stroke="white" stroke-width="0.75" fill="none"/>

  <!-- Wave 3 -->
  <path d="M 2 22 C 4 22, 5 22, 6 20 C 7 17, 9 17, 11 20 C 13 27, 15 27, 16 27 C 17 27, 19 27, 21 20 C 23 17, 25 17, 26 20 C 27 22, 28 22, 30 22" stroke="white" stroke-width="0.75" fill="none"/>
</svg>
