<svg xmlns="http://www.w3.org/2000/svg" viewBox="0 0 32 32" width="32" height="32">
  <rect width="32" height="32" fill="#4b1c4c" rx="4"/>

  <!-- ECG wave 1 -->
  <path d="M 2 8 L 6 8 L 8 6 L 10 8 L 12 2 L 14 14 L 16 8 L 18 6 L 20 8 L 30 8" stroke="white" stroke-width="1" fill="none"/>

  <!-- ECG wave 2 -->
  <path d="M 2 16 L 6 16 L 8 14 L 10 16 L 12 10 L 14 22 L 16 16 L 18 14 L 20 16 L 30 16" stroke="white" stroke-width="1" fill="none"/>

  <!-- ECG wave 3 -->
  <path d="M 2 24 L 6 24 L 8 22 L 10 24 L 12 18 L 14 30 L 16 24 L 18 22 L 20 24 L 30 24" stroke="white" stroke-width="1" fill="none"/>
</svg>
