<svg xmlns="http://www.w3.org/2000/svg" viewBox="0 0 32 32" width="32" height="32">
  <rect width="32" height="32" fill="#4b1c4c" rx="4"/>

  <!-- Wave 1 -->
  <path d="M 2 8 C 6 8, 9 8, 11 8 C 12 8, 12 2, 14 2 C 16 2, 16 14, 18 14 C 20 14, 20 8, 22 8 C 24 8, 27 8, 30 8" stroke="white" stroke-width="1" fill="none"/>

  <!-- Wave 2 -->
  <path d="M 2 16 C 6 16, 9 16, 11 16 C 12 16, 12 10, 14 10 C 16 10, 16 22, 18 22 C 20 22, 20 16, 22 16 C 24 16, 27 16, 30 16" stroke="white" stroke-width="1" fill="none"/>

  <!-- Wave 3 -->
  <path d="M 2 24 C 6 24, 9 24, 11 24 C 12 24, 12 18, 14 18 C 16 18, 16 30, 18 30 C 20 30, 20 24, 22 24 C 24 24, 27 24, 30 24" stroke="white" stroke-width="1" fill="none"/>
</svg>
