<svg xmlns="http://www.w3.org/2000/svg" viewBox="0 0 32 32" width="32" height="32">
  <rect width="32" height="32" fill="#4b1c4c" rx="4"/>

  <!-- Wave 1 -->
  <path d="M 2 8 L 5 8 C 6 8, 6 2, 9 2 C 12 2, 12 14, 16 14 C 20 14, 20 2, 23 2 C 26 2, 26 8, 27 8 L 30 8" stroke="white" stroke-width="1" fill="none"/>

  <!-- Wave 2 -->
  <path d="M 2 16 L 5 16 C 6 16, 6 10, 9 10 C 12 10, 12 22, 16 22 C 20 22, 20 10, 23 10 C 26 10, 26 16, 27 16 L 30 16" stroke="white" stroke-width="1" fill="none"/>

  <!-- Wave 3 -->
  <path d="M 2 24 L 5 24 C 6 24, 6 18, 9 18 C 12 18, 12 30, 16 30 C 20 30, 20 18, 23 18 C 26 18, 26 24, 27 24 L 30 24" stroke="white" stroke-width="1" fill="none"/>
</svg>
