<svg xmlns="http://www.w3.org/2000/svg" viewBox="0 0 32 32" width="32" height="32">
  <rect width="32" height="32" fill="#4b1c4c" rx="4"/>

  <!-- Wave 1 -->
  <path d="M 4 10 C 5 10, 6 7, 7 4 C 8 2, 10 2, 12 7 C 14 18, 15 18, 16 18 C 17 18, 18 18, 20 7 C 22 2, 24 2, 25 4 C 26 7, 27 10, 28 10" stroke="white" stroke-width="0.75" fill="none"/>

  <!-- Wave 2 -->
  <path d="M 4 16 C 5 16, 6 13, 7 10 C 8 8, 10 8, 12 13 C 14 24, 15 24, 16 24 C 17 24, 18 24, 20 13 C 22 8, 24 8, 25 10 C 26 13, 27 16, 28 16" stroke="white" stroke-width="0.75" fill="none"/>

  <!-- Wave 3 -->
  <path d="M 4 22 C 5 22, 6 19, 7 16 C 8 14, 10 14, 12 19 C 14 30, 15 30, 16 30 C 17 30, 18 30, 20 19 C 22 14, 24 14, 25 16 C 26 19, 27 22, 28 22" stroke="white" stroke-width="0.75" fill="none"/>
</svg>
