<svg xmlns="http://www.w3.org/2000/svg" viewBox="0 0 32 32" width="32" height="32">
  <rect width="32" height="32" fill="#4b1c4c" rx="4"/>

  <!-- Smooth wave 1 -->
  <path d="M 4 9 C 8 9, 8 4, 12 4 C 16 4, 16 14, 16 14 C 16 14, 16 4, 20 4 C 24 4, 24 9, 28 9" stroke="white" stroke-width="1" fill="none"/>

  <!-- Smooth wave 2 -->
  <path d="M 4 16 C 8 16, 8 11, 12 11 C 16 11, 16 21, 16 21 C 16 21, 16 11, 20 11 C 24 11, 24 16, 28 16" stroke="white" stroke-width="1" fill="none"/>

  <!-- Smooth wave 3 -->
  <path d="M 4 23 C 8 23, 8 18, 12 18 C 16 18, 16 28, 16 28 C 16 28, 16 18, 20 18 C 24 18, 24 23, 28 23" stroke="white" stroke-width="1" fill="none"/>
</svg>
